{"title":"Bridge to Terabithia 2007 BDRip X264-AKS74u","uid":8805566,"size":1006759449,"categoryP":"video","categoryS":"hd___movies","magnet":"?xt=urn:btih:9801a2f81524a510ec7d424ba1c6f6d21eb61a11&amp;dn=Bridge+to+Terabithia+2007+BDRip+X264-AKS74u+&amp;tr=udp%3A%2F%2Ftracker.openbittorrent.com%3A80&amp;tr=udp%3A%2F%2Fopen.demonii.com%3A1337&amp;tr=udp%3A%2F%2Ftracker.coppersurfer.tk%3A6969&amp;tr=udp%3A%2F%2Fexodus.desync.com%3A6969","seeders":0,"leechers":2,"uploader":"R0thschild","files":5,"time":1376321569,"description":"PublicHash - Largest Bittorrent Community \nCrystal Clean files - Fast Speed! No Virus! No Fake! Enjoy!\n &lt;a href=&quot;\nhttp://www.imdb.com/title/tt0398808/&quot; rel=&quot;nofollow&quot; target=&quot;_NEW&quot;&gt;\nhttp://www.imdb.com/title/tt0398808/&lt;/a&gt;\n\n\nGeneral\nComplete name: Bridge.to.Terabithia.2007.BDRip.X264-AKS74uBridge.to.Terabithia.2007.BDRip.X264-AKS74u.mp4\nFormat: MPEG-4\nFormat profile: Base Media\nCodec ID: isom\nFile size: 957 MiB\nDuration: 1h 35mn\nOverall bit rate mode: Variable\nOverall bit rate: 1 400 Kbps\nEncoded date: UTC 2013-08-12 08:46:30\nTagged date: UTC 2013-08-12 08:46:30\n\nVideo\nID: 1\nFormat: AVC\nFormat/Info: Advanced Video Codec\nFormat profile: &lt;a class=&quot;__cf_email__&quot; href=&quot;/cdn-cgi/l/email-protection&quot; data-cfemail=&quot;1951707e7159552a3728&quot;&gt;[email&amp;#160;protected]&lt;/a&gt;&lt;script cf-hash='f9e31' type=&quot;text/javascript&quot;&gt;\n/* &lt;![CDATA[ */!function(){try{var t=&quot;currentScript&quot;in document?document.currentScript:function(){for(var t=document.getElementsByTagName(&quot;script&quot;),e=t.length;e--;)if(t[e].getAttribute(&quot;cf-hash&quot;))return t[e]}();if(t&amp;&amp;t.previousSibling){var e,r,n,i,c=t.previousSibling,a=c.getAttribute(&quot;data-cfemail&quot;);if(a){for(e=&quot;&quot;,r=parseInt(a.substr(0,2),16),n=2;a.length-n;n+=2)i=parseInt(a.substr(n,2),16)^r,e+=String.fromCharCode(i);e=document.createTextNode(e),c.parentNode.replaceChild(e,c)}}}catch(u){}}();/* ]]&gt; */&lt;/script&gt;\nFormat settings, CABAC: Yes\nFormat settings, ReFrames: 5 frames\nCodec ID: avc1\nCodec ID/Info: Advanced Video Coding\nDuration: 1h 35mn\nBit rate: 1 270 Kbps\nMaximum bit rate: 7 642 Kbps\nWidth: 720 pixels\nHeight: 388 pixels\nDisplay aspect ratio: 1.85:1\nFrame rate mode: Constant\nFrame rate: 23.976 fps\nColor space: YUV\nChroma subsampling: 4:2:0\nBit depth: 8 bits\nScan type: Progressive\nBits/(Pixel*Frame): 0.190\nStream size: 868 MiB (91%)\nWriting library: x264 core 133 r2334 a3ac64b\nEncoded date: UTC 2013-08-12 07:22:14\nTagged date: UTC 2013-08-12 08:46:33\n\nAudio\nID: 2\nFormat: AAC\nFormat/Info: Advanced Audio Codec\nFormat profile: LC\nCodec ID: 40\nDuration: 1h 35mn\nBit rate mode: Variable\nBit rate: 126 Kbps\nMaximum bit rate: 181 Kbps\nChannel(s): 2 channels\nChannel positions: Front: L R\nSampling rate: 48.0 KHz\nCompression mode: Lossy\nDelay relative to video: 83ms\nStream size: 86.4 MiB (9%)\nLanguage: English\nEncoded date: UTC 2013-08-12 08:44:10\nTagged date: UTC 2013-08-12 08:46:33","torrent":{"xt":"urn:btih:9801a2f81524a510ec7d424ba1c6f6d21eb61a11","amp;dn":"Bridge+to+Terabithia+2007+BDRip+X264-AKS74u+","amp;tr":["udp%3A%2F%2Ftracker.openbittorrent.com%3A80","udp%3A%2F%2Fopen.demonii.com%3A1337","udp%3A%2F%2Ftracker.coppersurfer.tk%3A6969","udp%3A%2F%2Fexodus.desync.com%3A6969"],"infoHash":"9801a2f81524a510ec7d424ba1c6f6d21eb61a11","infoHashBuffer":{"type":"Buffer","data":[152,1,162,248,21,36,165,16,236,125,66,75,161,198,246,210,30,182,26,17]},"announce":[],"urlList":[]}}